<svg id="club_membership" data-name="club membership" xmlns="http://www.w3.org/2000/svg" width="24" height="24" viewBox="0 0 24 24">
  <rect id="Rectangle_433" data-name="Rectangle 433" width="24" height="24" transform="translate(0 0)" fill="none"/>
  <g id="Group_1367" data-name="Group 1367" transform="translate(-96.112 -808)">
    <path id="Path_1740" data-name="Path 1740" d="M2344.363-850.928a12,12,0,0,1,12-12,11.994,11.994,0,0,1,10.99,7.194l-1.924.338-2.377.442-2.7.455-3.549-3.658a.479.479,0,0,0-.488-.122.478.478,0,0,0-.326.384l-.747,5.04-4.576,2.241a.48.48,0,0,0-.265.427.472.472,0,0,0,.264.427l4.563,2.269.718,5.042a.473.473,0,0,0,.322.385.467.467,0,0,0,.293,0,.438.438,0,0,0,.195-.118l3.569-3.64,2.922.512,3.335.646a11.973,11.973,0,0,1-10.218,5.735A12,12,0,0,1,2344.363-850.928Z" transform="translate(-2248.251 1670.929)" fill="#07457d"/>
  </g>
  <g id="Group_2476" data-name="Group 2476" transform="translate(-96.112 -808.042)">
    <path id="Path_1740-2" data-name="Path 1740" d="M2357.167-845.429a.268.268,0,0,1-.187-.222l-.422-2.937-2.657-1.323a.277.277,0,0,1-.154-.248.279.279,0,0,1,.155-.249l2.668-1.306.434-2.934a.282.282,0,0,1,.19-.225.281.281,0,0,1,.283.07l2.067,2.132,2.928-.493a.278.278,0,0,1,.27.11.268.268,0,0,1,.022.29l-1.389,2.624,1.372,2.63a.271.271,0,0,1-.019.293.276.276,0,0,1-.272.11l-2.923-.509-2.082,2.119a.269.269,0,0,1-.114.069.288.288,0,0,1-.085.013A.3.3,0,0,1,2357.167-845.429Z" transform="translate(-2248.251 1670.929)" fill="#f79429"/>
  </g>
  <rect id="Rectangle_428" data-name="Rectangle 428" width="24" height="24" transform="translate(0 0)" fill="none"/>
</svg>
