<svg width="63" height="62" viewBox="0 0 63 62" fill="none" xmlns="http://www.w3.org/2000/svg">
<rect x="1.5" y="1" width="60" height="60" rx="30" stroke="#8340A1" stroke-width="2"/>
<path d="M26.2 18.8678C26.7428 19.2085 27.1058 19.5875 27.2931 20.2155C27.3884 20.935 27.349 21.5772 26.9025 22.1686C26.5986 22.4915 26.2693 22.7275 25.8869 22.9499C26.2967 23.9311 26.7177 24.9002 27.215 25.8405C27.2449 25.8974 27.2748 25.9543 27.3056 26.0129C27.907 27.1495 28.5744 28.1995 29.4806 29.1217C29.5367 29.1788 29.5928 29.2359 29.6506 29.2948C30.1884 29.8078 30.7612 30.1494 31.5167 30.1862C32.3671 30.1434 32.9797 29.6468 33.5431 29.0436C34.7569 27.6016 36.4337 24.7802 36.4337 22.8717C36.3108 22.776 36.3108 22.776 36.1505 22.696C35.6708 22.4115 35.3148 22.0318 35.1432 21.493C34.9974 20.7794 35.0741 20.1952 35.4306 19.5594C35.6449 19.2564 35.8778 19.0678 36.1994 18.8874C36.2815 18.839 36.3637 18.7907 36.4484 18.7409C37.0739 18.5563 37.7256 18.5599 38.3094 18.8678C38.8522 19.2085 39.2152 19.5875 39.4025 20.2155C39.4873 20.8563 39.4661 21.4332 39.1407 22.0014C38.9592 22.237 38.7461 22.409 38.5022 22.5776C38.364 22.712 38.364 22.712 38.3921 22.9227C38.483 23.2489 38.5967 23.559 38.7238 23.8727C38.7509 23.9398 38.778 24.0069 38.8059 24.076C39.8913 26.7203 39.8913 26.7203 41.6104 28.9817C41.7462 29.1217 41.7462 29.1217 41.7462 29.278C41.7919 29.2991 41.8375 29.3203 41.8845 29.3421C42.0575 29.4336 42.195 29.536 42.3468 29.6589C43.0097 30.156 43.5698 30.3002 44.4025 30.2155C45.7068 29.9627 46.6747 28.6325 47.3752 27.6004C47.7364 27.0542 48.0645 26.4884 48.3869 25.9186C48.2248 25.7525 48.0752 25.6067 47.8839 25.4743C47.513 25.1396 47.2388 24.6375 47.1964 24.1358C47.1786 23.3435 47.328 22.7969 47.8678 22.208C48.4017 21.7197 48.9695 21.6664 49.6671 21.6736C50.2436 21.7272 50.6475 21.9749 51.0382 22.3932C51.5464 23.0416 51.601 23.6157 51.5119 24.4342C51.3292 25.0729 50.9049 25.5266 50.3354 25.8551C50.1837 25.9186 50.1837 25.9186 49.9494 25.9186C49.9301 26.0149 49.9108 26.1111 49.891 26.2103C49.7866 26.6785 49.6326 27.1272 49.4773 27.5806C49.446 27.6728 49.4147 27.765 49.3825 27.86C49.298 28.1087 49.2132 28.3573 49.1282 28.6058C49.0571 28.8138 48.9863 29.0219 48.9155 29.2299C48.5336 30.3521 48.1489 31.4733 47.7572 32.5921C47.6621 32.8639 47.5683 33.1361 47.4755 33.4087C47.2751 33.9943 47.071 34.5735 46.8251 35.1418C45.9425 37.1894 45.854 39.104 45.8932 41.3021C45.8948 41.4149 45.8964 41.5278 45.898 41.6406C45.9011 41.8528 45.9073 42.0642 45.9151 42.2763C45.9171 42.3709 45.919 42.4654 45.921 42.5628C45.9252 42.6868 45.9252 42.6868 45.9294 42.8133C45.8869 43.028 45.8869 43.028 45.7191 43.1952C45.4577 43.3656 45.3219 43.3796 45.0125 43.3798C44.8655 43.381 44.8655 43.381 44.7156 43.3823C44.6071 43.3816 44.4986 43.3809 44.3901 43.3802C44.2747 43.3805 44.1592 43.381 44.0438 43.3817C43.7266 43.383 43.4093 43.3823 43.0921 43.3813C42.75 43.3806 42.4078 43.3817 42.0657 43.3826C41.3955 43.384 40.7253 43.3837 40.055 43.3828C39.5104 43.3821 38.9658 43.382 38.4212 43.3823C38.3437 43.3824 38.2663 43.3824 38.1865 43.3825C38.0291 43.3826 37.8718 43.3827 37.7144 43.3828C36.2383 43.3837 34.7623 43.3826 33.2862 43.3809C32.0191 43.3796 30.7521 43.3798 29.485 43.3812C28.0143 43.3829 26.5436 43.3836 25.0729 43.3826C24.9161 43.3825 24.7593 43.3824 24.6026 43.3823C24.4868 43.3822 24.4869 43.3822 24.3688 43.3822C23.8247 43.3819 23.2806 43.3823 22.7366 43.3831C22.0737 43.384 21.4108 43.3837 20.7479 43.3821C20.4096 43.3812 20.0712 43.3809 19.7329 43.382C19.4233 43.3829 19.1138 43.3824 18.8042 43.3807C18.6921 43.3804 18.5799 43.3805 18.4678 43.3813C18.3156 43.3822 18.1634 43.3811 18.0113 43.3798C17.9267 43.3798 17.8421 43.3797 17.7549 43.3797C17.4713 43.3308 17.3393 43.2292 17.1369 43.028C17.0985 42.8253 17.0985 42.8253 17.1126 42.5914C17.1166 42.5025 17.1205 42.4137 17.1246 42.3222C17.1303 42.2252 17.1361 42.1282 17.1421 42.0282C17.1495 41.8166 17.1563 41.6051 17.1623 41.3934C17.1649 41.31 17.1649 41.31 17.1675 41.2248C17.2304 39.0798 17.025 37.2115 16.2726 35.196C16.2436 35.1181 16.2436 35.1181 16.214 35.0387C16.0218 34.5256 15.8233 34.0153 15.6202 33.5065C15.2997 32.7033 15.0226 31.888 14.7513 31.0671C14.6293 30.7003 14.5031 30.3349 14.3775 29.9692C14.2037 29.4621 14.0347 28.9538 13.8705 28.4436C13.7759 28.1508 13.6791 27.8588 13.582 27.5668C13.5373 27.4305 13.4935 27.2939 13.4509 27.157C13.2068 26.2993 13.2068 26.2993 12.5901 25.694C12.5253 25.6659 12.4606 25.6378 12.3939 25.6089C12.0135 25.4369 11.8142 25.0898 11.5998 24.7467C11.3795 24.1589 11.4111 23.3996 11.6681 22.8327C11.9463 22.3605 12.3817 21.9272 12.9044 21.7337C13.5193 21.6112 14.2442 21.5992 14.7931 21.9342C15.3328 22.3106 15.6034 22.7244 15.8087 23.3405C15.8741 24.1141 15.7873 24.698 15.3107 25.318C15.0963 25.5376 14.898 25.6826 14.6369 25.8405C14.7569 26.2536 14.9409 26.6097 15.1496 26.9831C15.1842 27.0452 15.2189 27.1072 15.2547 27.1712C15.9726 28.4322 16.9327 29.7922 18.3869 30.2155C19.0575 30.2979 19.6123 30.0236 20.1575 29.6601C20.6462 29.2645 21.024 28.8109 21.3751 28.2917C21.4187 28.2273 21.4623 28.1629 21.5072 28.0966C22.6195 26.4196 23.3762 24.5391 24.0119 22.6374C23.9652 22.6166 23.9186 22.5959 23.8706 22.5745C23.4618 22.3515 23.1736 21.9319 23.0338 21.493C22.888 20.7794 22.9648 20.1952 23.3213 19.5594C23.5355 19.2564 23.7684 19.0678 24.09 18.8874C24.1722 18.839 24.2543 18.7907 24.339 18.7409C24.9645 18.5563 25.6162 18.5599 26.2 18.8678ZM24.4171 20.3522C24.2831 20.6063 24.2946 20.7916 24.3244 21.0749C24.4398 21.3735 24.5386 21.4537 24.8175 21.6169C25.1529 21.7135 25.268 21.7035 25.5744 21.5436C25.8738 21.3223 25.9549 21.2167 26.0138 20.8454C25.9917 20.4801 25.8308 20.3096 25.5744 20.0592C25.1234 19.8338 24.751 20.0298 24.4171 20.3522ZM36.5265 20.3522C36.3924 20.6063 36.4039 20.7916 36.4337 21.0749C36.5491 21.3735 36.648 21.4537 36.9269 21.6169C37.2623 21.7135 37.3773 21.7035 37.6837 21.5436C37.9832 21.3223 38.0643 21.2167 38.1232 20.8454C38.1011 20.4801 37.9402 20.3096 37.6837 20.0592C37.2328 19.8338 36.8604 20.0298 36.5265 20.3522ZM12.9181 23.4186C12.8923 23.4444 12.8666 23.4702 12.84 23.4967C12.8055 23.7353 12.8027 23.9616 12.84 24.1999C13.0104 24.4152 13.1425 24.5464 13.3869 24.6686C13.743 24.71 13.743 24.71 14.0711 24.5868C14.3499 24.3579 14.4686 24.2256 14.5099 23.8678C14.4713 23.4817 14.3604 23.3766 14.09 23.1061C13.5933 22.8578 13.2416 23.0167 12.9181 23.4186ZM48.6212 23.4186C48.4982 23.6646 48.5159 23.8499 48.5431 24.1217C48.6816 24.3543 48.8444 24.5458 49.09 24.6686C49.4804 24.6981 49.7143 24.6759 50.0275 24.4342C50.2357 24.1219 50.2495 23.8641 50.1837 23.4967C50.0063 23.2605 50.0063 23.2605 49.7931 23.1061C49.7673 23.0803 49.7416 23.0546 49.715 23.028C49.1896 22.9746 48.99 23.0409 48.6212 23.4186ZM24.8712 24.278C24.8521 24.3258 24.8329 24.3736 24.8132 24.4228C22.4903 30.1841 22.4903 30.1841 20.0275 31.3092C18.981 31.6811 18.0424 31.6025 17.0441 31.1286C16.6811 30.9381 16.3623 30.7055 16.0431 30.4499C16.1613 31.0467 16.3432 31.6108 16.5399 32.186C16.5737 32.2853 16.6073 32.3847 16.641 32.484C16.7114 32.6917 16.7821 32.8992 16.853 33.1067C16.9425 33.3687 17.0315 33.6309 17.1203 33.8932C17.1898 34.0984 17.2596 34.3036 17.3294 34.5087C17.3779 34.6511 17.4262 34.7936 17.4745 34.936C17.7132 35.6342 17.9712 36.3206 18.2306 37.0124C26.9962 37.0124 35.7619 37.0124 44.7931 37.0124C45.5903 34.7585 45.5903 34.7585 46.3731 32.4997C46.4313 32.3299 46.4899 32.1602 46.5487 31.9906C46.6361 31.7386 46.7225 31.4863 46.8088 31.2339C46.8353 31.158 46.8618 31.0821 46.8891 31.0039C46.9127 30.9342 46.9363 30.8646 46.9606 30.7929C46.992 30.7016 46.992 30.7016 47.024 30.6085C47.0761 30.4353 47.0761 30.4353 46.9806 30.2155C46.9295 30.2608 46.8783 30.3061 46.8256 30.3528C45.783 31.2452 44.7673 31.6272 43.4004 31.5585C42.1421 31.448 41.0916 30.5054 40.2936 29.5932C39.0752 28.0645 38.2757 26.3036 37.5275 24.5124C37.4759 24.5124 37.4244 24.5124 37.3712 24.5124C37.3508 24.5646 37.3305 24.6168 37.3094 24.6706C35.1741 30.1196 35.1741 30.1196 32.9181 31.2311C32.8667 31.2576 32.8152 31.2841 32.7622 31.3114C32.0184 31.626 31.0138 31.5734 30.2667 31.3092C29.7718 31.0882 29.3521 30.7918 28.9337 30.4499C28.8745 30.4034 28.8153 30.357 28.7543 30.3092C27.8576 29.5667 27.2054 28.5358 26.59 27.5592C26.5398 27.48 26.4897 27.4007 26.438 27.3191C25.8579 26.3518 25.4151 25.3036 24.9494 24.278C24.9236 24.278 24.8978 24.278 24.8712 24.278ZM18.3869 38.3405C18.3869 39.5522 18.3869 40.7639 18.3869 42.0124C27.0494 42.0124 35.7119 42.0124 44.6369 42.0124C44.6369 40.8006 44.6369 39.5889 44.6369 38.3405C35.9744 38.3405 27.3119 38.3405 18.3869 38.3405Z" fill="#8340A1"/>
</svg>
