<svg width="63" height="62" viewBox="0 0 63 62" fill="none" xmlns="http://www.w3.org/2000/svg">
<rect x="1.5" y="1" width="60" height="60" rx="30" stroke="#8340A1" stroke-width="2"/>
<path d="M22.764 13.8603C22.976 13.8601 23.188 13.8596 23.4 13.8591C23.9132 13.858 24.4263 13.8582 24.9394 13.8589C25.3569 13.8594 25.7744 13.8595 26.1919 13.8593C26.2815 13.8592 26.2815 13.8592 26.3729 13.8592C26.4942 13.8591 26.6156 13.859 26.737 13.8589C27.8715 13.8583 29.006 13.859 30.1405 13.8603C31.1113 13.8613 32.0821 13.8612 33.0528 13.8601C34.1837 13.8588 35.3145 13.8583 36.4453 13.859C36.5662 13.8591 36.6871 13.8592 36.8079 13.8593C36.8674 13.8593 36.9269 13.8593 36.9881 13.8594C37.4045 13.8596 37.8209 13.8592 38.2373 13.8587C38.7456 13.858 39.2539 13.8582 39.7622 13.8595C40.021 13.8601 40.2797 13.8602 40.5384 13.8595C43.6476 13.8524 45.4353 14.7719 47.6115 16.928C47.7136 17.0287 47.816 17.1291 47.9189 17.229C48.7625 18.0485 49.4986 18.8804 49.8935 20.0088C49.9203 20.082 49.9203 20.082 49.9477 20.1566C50.1815 20.8151 50.2731 21.4384 50.2708 22.1361C50.2712 22.2162 50.2715 22.2963 50.2719 22.3788C50.2729 22.6458 50.2728 22.9128 50.2726 23.1797C50.2731 23.3718 50.2736 23.5638 50.2742 23.7559C50.2755 24.2226 50.276 24.6893 50.276 25.156C50.2761 25.5358 50.2764 25.9156 50.2769 26.2954C50.2783 27.3743 50.279 28.4533 50.2789 29.5323C50.2789 29.5904 50.2789 29.6484 50.2789 29.7083C50.2789 29.7664 50.2789 29.8246 50.2789 29.8845C50.2788 30.8258 50.2803 31.7671 50.2825 32.7084C50.2848 33.6771 50.2858 34.6457 50.2857 35.6144C50.2856 36.1574 50.2861 36.7003 50.2878 37.2433C50.2893 37.7544 50.2893 38.2656 50.2881 38.7767C50.288 38.9635 50.2883 39.1503 50.2893 39.3371C50.2952 40.5794 50.2551 41.7672 49.6542 42.8896C49.6145 42.9661 49.6145 42.9661 49.5739 43.0441C48.8048 44.4717 47.6157 45.5269 46.0996 46.1074C46.0269 46.1354 46.0269 46.1354 45.9527 46.1639C45.2217 46.4266 44.4793 46.497 43.707 46.498C43.6297 46.5 43.5525 46.5019 43.4729 46.5038C42.9786 46.5058 42.683 46.4494 42.2812 46.1562C41.9955 45.8254 41.8717 45.4997 41.8906 45.0625C41.9715 44.6093 42.1794 44.3447 42.5299 44.0569C42.8217 43.8756 43.1228 43.8816 43.4602 43.872C44.6761 43.8339 45.7658 43.5112 46.6562 42.6406C47.1683 42.0115 47.6037 41.2577 47.6033 40.4258C47.6035 40.3579 47.6036 40.2901 47.6038 40.2202C47.6035 40.146 47.6033 40.0719 47.6031 39.9955C47.6032 39.9166 47.6032 39.8377 47.6033 39.7564C47.6034 39.4905 47.603 39.2247 47.6026 38.9588C47.6025 38.7655 47.6025 38.5723 47.6026 38.379C47.6026 37.9132 47.6023 37.4474 47.6018 36.9816C47.6012 36.4429 47.6011 35.9041 47.6011 35.3653C47.6007 33.9428 47.5996 32.5202 47.5986 31.0977C47.597 27.9201 47.5954 24.7426 47.5937 21.4688C36.9718 21.4688 26.3499 21.4688 15.4062 21.4688C15.3562 22.0188 15.3166 22.5457 15.3176 23.0944C15.3174 23.2025 15.3174 23.2025 15.3171 23.3128C15.3166 23.5516 15.3167 23.7903 15.3167 24.0291C15.3165 24.2014 15.3162 24.3737 15.3159 24.546C15.3152 25.0122 15.315 25.4784 15.315 25.9446C15.3149 26.2363 15.3148 26.528 15.3146 26.8197C15.3139 27.7861 15.3135 28.7525 15.3136 29.719C15.3136 29.7969 15.3136 29.7969 15.3136 29.8764C15.3136 29.9545 15.3136 29.9545 15.3136 30.0341C15.3136 30.877 15.3129 31.7199 15.3118 32.5628C15.3107 33.4306 15.3101 34.2985 15.3102 35.1663C15.3102 35.6526 15.31 36.1389 15.3092 36.6251C15.3084 37.0827 15.3084 37.5402 15.309 37.9977C15.309 38.165 15.3089 38.3322 15.3084 38.4994C15.3042 40.065 15.3248 41.4872 16.4218 42.7187C17.2256 43.4447 18.1545 43.8261 19.2317 43.8219C19.325 43.822 19.325 43.822 19.4202 43.8221C19.6285 43.8222 19.8367 43.8218 20.045 43.8214C20.1943 43.8213 20.3437 43.8214 20.4931 43.8214C20.8985 43.8214 21.304 43.821 21.7094 43.8204C22.1332 43.8199 22.5569 43.8199 22.9806 43.8198C23.783 43.8195 24.5854 43.8189 25.3878 43.8181C26.3013 43.8173 27.2148 43.8168 28.1283 43.8164C30.0074 43.8156 31.8865 43.8142 33.7656 43.8125C33.7398 43.7352 33.714 43.6578 33.6874 43.5781C33.648 43.1666 33.635 42.8256 33.8193 42.4502C34.1855 42.0444 34.4288 41.8797 34.9667 41.8398C35.4364 41.8722 35.7466 42.094 36.0852 42.4075C36.1524 42.4697 36.2196 42.5318 36.2888 42.5959C36.6486 42.9384 37.0031 43.2856 37.3544 43.6367C37.4272 43.7085 37.5 43.7803 37.5749 43.8543C37.6447 43.9239 37.7144 43.9935 37.7863 44.0652C37.8488 44.1274 37.9113 44.1896 37.9758 44.2537C38.2396 44.5479 38.4096 44.8042 38.4238 45.2041C38.4073 45.5033 38.3699 45.6598 38.1653 45.8795C38.0909 45.9597 38.0909 45.9597 38.0151 46.0415C37.9534 46.1051 37.8916 46.1688 37.8281 46.2344C37.7905 46.2732 37.7529 46.312 37.7142 46.3521C37.446 46.6284 37.1751 46.9019 36.9028 47.1742C36.7578 47.3193 36.6135 47.465 36.4693 47.6107C36.3767 47.7035 36.2841 47.7963 36.1914 47.889C36.1486 47.9324 36.1058 47.9758 36.0617 48.0205C35.6931 48.3868 35.4659 48.5227 34.9472 48.5293C34.5416 48.5224 34.3067 48.4707 33.9999 48.1875C33.7424 47.8944 33.6757 47.6453 33.6728 47.2598C33.6717 47.1939 33.6706 47.128 33.6694 47.0602C33.6894 46.8381 33.7576 46.6732 33.8437 46.4687C33.765 46.469 33.6863 46.4692 33.6052 46.4694C31.6867 46.4746 29.7682 46.4785 27.8497 46.4809C26.922 46.4821 25.9942 46.4837 25.0664 46.4864C24.2574 46.4888 23.4484 46.4903 22.6395 46.4908C22.2114 46.4911 21.7834 46.4918 21.3553 46.4935C20.9517 46.4951 20.5482 46.4956 20.1445 46.4953C19.9971 46.4953 19.8497 46.4958 19.7022 46.4967C17.6783 46.5085 16.0094 45.9813 14.5099 44.5635C14.029 44.0663 13.675 43.5091 13.3554 42.8994C13.3306 42.8536 13.3058 42.8078 13.2803 42.7607C12.6935 41.5852 12.7047 40.3502 12.7095 39.0694C12.7091 38.8772 12.7085 38.6849 12.7078 38.4927C12.7066 38.0276 12.7068 37.5625 12.7077 37.0974C12.7084 36.719 12.7085 36.3406 12.7081 35.9622C12.7081 35.9081 12.708 35.8539 12.708 35.7982C12.7079 35.6882 12.7078 35.5781 12.7077 35.4681C12.7068 34.4399 12.7078 33.4116 12.7095 32.3833C12.7109 31.5034 12.7106 30.6235 12.7092 29.7436C12.7075 28.7186 12.7069 27.6936 12.7078 26.6685C12.7079 26.559 12.708 26.4494 12.7081 26.3398C12.7082 26.286 12.7082 26.2321 12.7083 26.1766C12.7085 25.7991 12.7081 25.4217 12.7073 25.0442C12.7064 24.5351 12.7071 24.0261 12.7089 23.517C12.7093 23.3309 12.7092 23.1448 12.7085 22.9587C12.7051 21.9697 12.7292 21.0794 13.0624 20.1406C13.0919 20.0562 13.1214 19.9718 13.1517 19.8849C13.5946 18.6763 14.4893 17.8023 15.3842 16.9145C15.5766 16.7231 15.7671 16.53 15.9575 16.3366C17.9878 14.2961 19.9508 13.8532 22.764 13.8603ZM18.2187 17.7969C18.1747 17.8398 18.1307 17.8827 18.0854 17.9269C17.7874 18.2183 17.4901 18.5102 17.2031 18.8125C17.2031 18.8383 17.2031 18.8641 17.2031 18.8906C26.639 18.8906 36.0749 18.8906 45.7968 18.8906C44.7912 17.7174 43.8631 16.7491 42.2812 16.4688C42.1539 16.4619 42.0264 16.4587 41.899 16.4585C41.8237 16.4582 41.7484 16.4579 41.6708 16.4576C41.5887 16.4576 41.5065 16.4577 41.4219 16.4578C41.3342 16.4575 41.2465 16.4573 41.1561 16.4571C40.8615 16.4564 40.5669 16.4563 40.2724 16.4562C40.0614 16.4558 39.8504 16.4554 39.6394 16.455C39.0657 16.4539 38.4921 16.4535 37.9184 16.4531C37.5599 16.4529 37.2014 16.4526 36.843 16.4522C35.8498 16.4513 34.8566 16.4505 33.8635 16.4502C33.7999 16.4502 33.7364 16.4502 33.6709 16.4501C33.6072 16.4501 33.5435 16.4501 33.4779 16.4501C33.3488 16.4501 33.2198 16.45 33.0907 16.45C32.9947 16.45 32.9947 16.45 32.8967 16.4499C31.8602 16.4496 30.8237 16.4483 29.7872 16.4464C28.7221 16.4446 27.6571 16.4436 26.592 16.4435C25.9944 16.4434 25.3968 16.443 24.7992 16.4416C24.2901 16.4404 23.781 16.44 23.2719 16.4406C23.0125 16.4409 22.7531 16.4407 22.4936 16.4398C22.2115 16.4388 21.9295 16.4392 21.6474 16.44C21.5665 16.4394 21.4856 16.4388 21.4022 16.4381C20.0989 16.4469 19.1372 16.8954 18.2187 17.7969Z" fill="#8340A1"/>
<path d="M42.5938 26.9375C42.8736 27.1545 43.1263 27.3888 43.375 27.6406C43.4199 27.6838 43.4649 27.727 43.5111 27.7715C44.3724 28.6708 44.4938 29.8559 44.495 31.0327C44.4955 31.1502 44.496 31.2677 44.4966 31.3853C44.4975 31.631 44.4978 31.8768 44.4977 32.1226C44.4977 32.4348 44.4998 32.747 44.5025 33.0592C44.5043 33.3019 44.5046 33.5446 44.5045 33.7873C44.5047 33.9023 44.5054 34.0172 44.5066 34.1322C44.5196 35.4775 44.1743 36.5509 43.2484 37.5347C42.3021 38.4717 41.1858 38.8465 39.8678 38.8411C38.971 38.8144 38.2175 38.5337 37.5938 37.875C37.0189 37.1006 36.8788 36.3221 36.8793 35.3771C36.879 35.309 36.8788 35.241 36.8785 35.1709C36.8778 34.9472 36.8776 34.7235 36.8775 34.4998C36.8773 34.3432 36.877 34.1867 36.8767 34.0301C36.8763 33.7023 36.8761 33.3745 36.8762 33.0466C36.8762 32.6284 36.8751 32.2101 36.8738 31.7918C36.8729 31.4685 36.8727 31.1452 36.8728 30.8219C36.8727 30.6677 36.8723 30.5136 36.8717 30.3595C36.8632 27.9809 36.8632 27.9809 37.678 27.0681C39.0122 25.8085 41.1213 26.0202 42.5938 26.9375ZM39.7031 28.9688C39.5025 29.3613 39.4348 29.6815 39.4397 30.1237C39.4394 30.1819 39.4391 30.24 39.4388 30.2999C39.4382 30.4903 39.4392 30.6808 39.4404 30.8712C39.4404 31.0044 39.4404 31.1375 39.4403 31.2707C39.4403 31.549 39.4411 31.8273 39.4425 32.1056C39.4443 32.4619 39.4443 32.8182 39.4438 33.1745C39.4435 33.4491 39.4441 33.7238 39.4448 33.9985C39.4451 34.1298 39.4452 34.2612 39.4451 34.3926C39.4451 34.5762 39.446 34.7598 39.4473 34.9434C39.4471 34.9974 39.4469 35.0513 39.4467 35.107C39.4513 35.5213 39.5087 35.7989 39.7959 36.1025C40.0875 36.2775 40.2251 36.2842 40.5625 36.2344C41.1364 36.0367 41.5124 35.7482 41.8125 35.2188C41.8965 34.9667 41.9021 34.781 41.9045 34.5159C41.9055 34.4194 41.9065 34.3229 41.9075 34.2234C41.9082 34.1179 41.9087 34.0123 41.9093 33.9068C41.9096 33.8535 41.9099 33.8002 41.9102 33.7453C41.9119 33.4629 41.913 33.1805 41.9137 32.8982C41.9146 32.6077 41.9173 32.3173 41.9204 32.0269C41.9224 31.8026 41.9231 31.5782 41.9233 31.3539C41.9237 31.2469 41.9246 31.1399 41.9261 31.0329C41.935 30.3351 41.9095 29.8294 41.4445 29.2794C40.9853 28.9065 40.2441 28.5244 39.7031 28.9688Z" fill="#8340A1"/>
<path d="M33.5804 26.8042C33.6416 26.8482 33.7027 26.8922 33.7657 26.9375C33.826 26.9807 33.8863 27.0239 33.9485 27.0684C34.6173 27.6023 35.0507 28.3756 35.2501 29.2031C35.2649 29.4223 35.273 29.6338 35.2728 29.8528C35.2733 29.9153 35.2738 29.9779 35.2743 30.0424C35.2758 30.248 35.2761 30.4535 35.2763 30.6591C35.2768 30.8032 35.2773 30.9473 35.2779 31.0914C35.2788 31.3932 35.2791 31.6949 35.279 31.9967C35.279 32.3812 35.2811 32.7656 35.2838 33.15C35.2856 33.4477 35.2859 33.7454 35.2858 34.043C35.286 34.1847 35.2867 34.3263 35.2879 34.4679C35.2967 35.5985 35.1682 36.4782 34.4688 37.4063C34.4237 37.4739 34.3786 37.5416 34.3321 37.6113C33.661 38.3197 32.7201 38.7578 31.7509 38.8284C30.6559 38.8465 29.6304 38.5324 28.8139 37.7764C27.7587 36.6422 27.6596 35.3878 27.6588 33.9138C27.6586 33.8037 27.6583 33.6936 27.658 33.5835C27.6576 33.3537 27.6574 33.1239 27.6575 32.8941C27.6575 32.6027 27.6564 32.3114 27.655 32.0201C27.6542 31.7928 27.654 31.5656 27.6541 31.3384C27.6539 31.1797 27.6531 31.0211 27.6522 30.8625C27.6556 29.4809 27.8312 28.2803 28.8258 27.2473C30.1345 26.0944 32.0874 25.8223 33.5804 26.8042ZM30.4112 29.3985C30.2582 29.7584 30.24 30.0979 30.2387 30.4862C30.2382 30.5861 30.2377 30.686 30.2372 30.7889C30.2371 30.8973 30.237 31.0057 30.2369 31.1142C30.2367 31.2261 30.2364 31.3381 30.2361 31.4501C30.2357 31.6845 30.2355 31.919 30.2356 32.1534C30.2356 32.4528 30.2345 32.7522 30.2332 33.0515C30.2323 33.2828 30.2321 33.514 30.2322 33.7452C30.2321 33.8555 30.2318 33.9659 30.2311 34.0762C30.2304 34.2309 30.2307 34.3857 30.2311 34.5405C30.231 34.6283 30.2309 34.7161 30.2307 34.8066C30.2607 35.2031 30.3284 35.5142 30.5821 35.8242C30.9255 36.1052 31.1729 36.2604 31.6221 36.2246C31.916 36.1773 32.129 36.1194 32.3594 35.9219C32.6225 35.5279 32.7113 35.2744 32.7136 34.7909C32.7143 34.7353 32.7149 34.6797 32.7156 34.6225C32.7174 34.4403 32.7169 34.2583 32.7162 34.0762C32.7166 33.9487 32.7171 33.8211 32.7176 33.6936C32.7185 33.427 32.7181 33.1604 32.717 32.8938C32.7156 32.553 32.7175 32.2124 32.7202 31.8717C32.7219 31.6085 32.7218 31.3454 32.7212 31.0823C32.7211 30.9567 32.7216 30.8311 32.7228 30.7055C32.7539 29.9417 32.7539 29.9417 32.4873 29.2486C32.1726 28.9404 31.947 28.8299 31.5098 28.7735C31.0478 28.7921 30.6884 29.0407 30.4112 29.3985Z" fill="#8340A1"/>
<path d="M24.3711 26.791C25.2821 27.4169 25.8558 28.2788 26.0606 29.3691C26.2356 30.7371 26.2356 30.7371 25.875 31.3125C25.5493 31.6652 25.2857 31.8468 24.7959 31.8789C24.4271 31.8722 24.1524 31.7795 23.8871 31.5106C23.5757 31.1467 23.523 30.9491 23.502 30.4775C23.4636 29.9098 23.4034 29.5718 23.0234 29.1348C22.7409 28.8946 22.5022 28.8632 22.1351 28.8687C21.8382 28.9079 21.6646 29.0271 21.4219 29.2031C21.178 29.5219 21.1579 29.7664 21.1572 30.1626C21.1566 30.2463 21.1566 30.2463 21.1559 30.3317C21.1549 30.5154 21.1556 30.6991 21.1564 30.8828C21.1562 31.0109 21.156 31.1391 21.1557 31.2672C21.1554 31.5354 21.1559 31.8036 21.1569 32.0718C21.1583 32.4151 21.1575 32.7585 21.1561 33.1018C21.1553 33.3663 21.1555 33.6307 21.1561 33.8952C21.1563 34.0218 21.1561 34.1484 21.1556 34.275C21.155 34.4521 21.1559 34.6291 21.1572 34.8062C21.1575 34.9571 21.1575 34.9571 21.1577 35.1112C21.1993 35.4798 21.3376 35.6764 21.5879 35.9414C21.8952 36.1284 22.1571 36.1813 22.5156 36.1562C22.8385 36.0611 23.0653 35.9425 23.2709 35.6729C23.3986 35.4033 23.4215 35.1735 23.4482 34.877C23.4993 34.4245 23.5499 34.0918 23.8438 33.7344C24.2166 33.4436 24.5106 33.3705 24.9821 33.392C25.3941 33.4569 25.6404 33.6374 25.9043 33.9639C26.2363 34.5895 26.1305 35.4128 25.9754 36.0864C25.6402 37.0832 25.0235 37.9046 24.0928 38.4072C23.0668 38.8759 22.0297 38.9674 20.9586 38.5983C19.8711 38.1527 19.2234 37.4353 18.7656 36.3641C18.589 35.908 18.5212 35.5437 18.5174 35.0546C18.5167 34.9717 18.5167 34.9717 18.5159 34.887C18.5143 34.7041 18.5134 34.5212 18.5126 34.3383C18.5123 34.2754 18.512 34.2125 18.5117 34.1477C18.51 33.8141 18.5089 33.4804 18.5082 33.1468C18.5073 32.8052 18.5047 32.4636 18.5015 32.122C18.4995 31.8569 18.4988 31.5918 18.4986 31.3266C18.4982 31.2009 18.4973 31.0752 18.4958 30.9495C18.4797 29.4758 18.7907 28.2054 19.838 27.106C21.0688 25.9386 22.967 25.9672 24.3711 26.791Z" fill="#8340A1"/>
</svg>
