<svg width="63" height="62" viewBox="0 0 63 62" fill="none" xmlns="http://www.w3.org/2000/svg">
<rect x="1.5" y="1" width="60" height="60" rx="30" stroke="#8340A1" stroke-width="2"/>
<g clip-path="url(#clip0_17_82)">
<path d="M35.0156 11.2344C35.0856 11.247 35.1555 11.2595 35.2276 11.2725C38.9734 11.9502 42.2701 13.7245 45.0937 16.2344C45.1195 15.2805 45.1453 14.3266 45.1718 13.3438C45.9711 13.3438 46.7703 13.3438 47.5937 13.3438C47.5937 15.6899 47.5937 18.0359 47.5937 20.4531C45.1187 20.4531 42.6437 20.4531 40.0937 20.4531C40.0937 19.6539 40.0937 18.8547 40.0937 18.0313C41.125 18.0055 42.1562 17.9797 43.2187 17.9531C42.505 17.2964 42.505 17.2964 41.7441 16.7129C41.6885 16.6742 41.6329 16.6356 41.5757 16.5957C39.627 15.2651 37.4961 14.3449 35.1963 13.832C35.1268 13.8165 35.0573 13.801 34.9857 13.7849C33.846 13.544 32.7292 13.4703 31.5683 13.4756C31.468 13.4758 31.468 13.4758 31.3656 13.4761C30.3267 13.4803 29.317 13.5226 28.2968 13.7344C28.2203 13.7499 28.1437 13.7654 28.0648 13.7814C26.4812 14.111 24.9573 14.598 23.5314 15.3686C23.3639 15.4591 23.1953 15.5475 23.0268 15.6359C22.2317 16.0593 21.5049 16.5376 20.7968 17.0938C20.7207 17.1533 20.6446 17.2128 20.5661 17.2741C16.8715 20.2351 14.5995 24.4474 14.0365 29.148C13.9992 29.4914 13.985 29.8314 13.9813 30.1766C13.9806 30.2376 13.9798 30.2985 13.979 30.3612C13.9578 32.4842 14.1756 34.4062 14.8141 36.4437C14.8593 36.625 14.8593 36.625 14.8593 36.9375C14.4429 37.0943 14.0262 37.2505 13.6093 37.4063C13.5206 37.4395 13.4319 37.4727 13.3405 37.507C13.2648 37.535 13.1892 37.563 13.1113 37.5918C13.0446 37.6166 12.978 37.6414 12.9093 37.6669C12.75 37.7188 12.75 37.7188 12.5937 37.7188C12.225 36.6924 11.9426 35.6644 11.7343 34.5938C11.7213 34.5298 11.7083 34.4659 11.6949 34.4001C11.2668 32.208 11.2867 29.5928 11.7343 27.4063C11.757 27.2895 11.757 27.2895 11.7801 27.1703C12.3761 24.154 13.6037 21.3296 15.4843 18.8906C15.5597 18.7927 15.5597 18.7927 15.6366 18.6929C16.737 17.2921 18.0138 15.9415 19.4687 14.9063C19.517 14.8714 19.5652 14.8366 19.6149 14.8007C22.1016 13.0126 24.8898 11.7886 27.9062 11.2344C27.9692 11.2218 28.0321 11.2093 28.097 11.1963C30.2809 10.7725 32.8359 10.8062 35.0156 11.2344Z" fill="#8340A1"/>
<path d="M50.5625 24.75C50.8187 25.4816 51.0105 26.2164 51.1631 26.9766C51.1789 27.0543 51.1946 27.1319 51.2109 27.212C51.4559 28.4711 51.5293 29.6861 51.5244 30.9658C51.5242 31.0456 51.5241 31.1253 51.5239 31.2075C51.52 32.3514 51.4958 33.4695 51.2656 34.5938C51.2505 34.6716 51.2354 34.7495 51.2198 34.8297C50.5856 38.0398 49.2286 40.9377 47.2031 43.5C47.1397 43.5811 47.0762 43.6621 47.0109 43.7457C46.0211 44.9618 44.8838 46.0998 43.6094 47.0156C43.518 47.0831 43.4266 47.1507 43.3353 47.2183C41.7239 48.4013 39.9576 49.3453 38.0625 49.9844C37.967 50.0166 37.967 50.0166 37.8696 50.0496C37.1062 50.3025 36.3342 50.5004 35.5479 50.668C35.4756 50.6835 35.4034 50.699 35.3289 50.715C34.0628 50.9723 32.8179 51.0293 31.5293 51.0244C31.4498 51.0242 31.3702 51.0241 31.2883 51.0239C30.147 51.02 29.0273 51.0004 27.9062 50.7656C27.792 50.7423 27.792 50.7423 27.6755 50.7186C23.957 49.9408 20.7362 48.2811 17.9062 45.7656C17.8805 46.7195 17.8547 47.6734 17.8281 48.6562C17.0289 48.6562 16.2297 48.6562 15.4062 48.6562C15.4062 46.3102 15.4062 43.9641 15.4062 41.5469C17.8813 41.5469 20.3563 41.5469 22.9062 41.5469C22.9062 42.3461 22.9062 43.1453 22.9062 43.9688C21.8492 43.9945 20.7922 44.0203 19.7031 44.0469C20.7336 44.89 21.7487 45.659 22.9062 46.3125C22.9572 46.3417 23.0081 46.3709 23.0605 46.401C25.3018 47.6779 28.0215 48.5004 30.6122 48.5159C30.6742 48.5164 30.7362 48.517 30.8001 48.5175C32.1151 48.5266 33.4099 48.5341 34.7031 48.2656C34.7797 48.2501 34.8563 48.2346 34.9351 48.2186C36.5843 47.8753 38.1439 47.3516 39.625 46.5469C39.6759 46.5198 39.7268 46.4927 39.7792 46.4649C40.9998 45.8144 42.1083 45.0449 43.1406 44.125C43.2004 44.0724 43.2004 44.0724 43.2614 44.0188C44.5949 42.8447 45.6478 41.4944 46.5781 39.9844C46.6245 39.9097 46.6245 39.9097 46.6718 39.8335C48.109 37.4912 48.9989 34.5835 49.0159 31.8267C49.0167 31.7364 49.0167 31.7364 49.0175 31.6442C49.0313 29.6922 48.8334 27.9354 48.3451 26.0401C48.2973 25.8453 48.2566 25.6501 48.2188 25.4531C48.5505 25.3351 48.8826 25.2183 49.2148 25.1016C49.3091 25.068 49.4034 25.0345 49.5005 24.9999C49.5911 24.9682 49.6818 24.9365 49.7751 24.9038C49.9003 24.8596 49.9003 24.8596 50.0281 24.8145C50.25 24.75 50.25 24.75 50.5625 24.75Z" fill="#8340A1"/>
<path d="M22.42 28.8C22.42 28.0533 22.6013 27.4187 22.964 26.896C23.3267 26.368 23.8093 25.9653 24.412 25.688C25.02 25.4107 25.6893 25.272 26.42 25.272C27.22 25.272 27.9267 25.3893 28.54 25.624C29.1533 25.8533 29.6333 26.1893 29.98 26.632C30.3267 27.0747 30.5 27.616 30.5 28.256C30.5 28.8267 30.3187 29.344 29.956 29.808C29.5933 30.2667 29.0387 30.6267 28.292 30.888C28.7987 31.0267 29.2413 31.2293 29.62 31.496C29.9987 31.7627 30.292 32.0907 30.5 32.48C30.708 32.864 30.812 33.3067 30.812 33.808C30.812 34.336 30.7 34.8107 30.476 35.232C30.2573 35.648 29.948 36.0027 29.548 36.296C29.148 36.584 28.676 36.8053 28.132 36.96C27.588 37.1093 26.996 37.1813 26.356 37.176C25.5613 37.1707 24.86 37.024 24.252 36.736C23.6493 36.448 23.1747 36.0453 22.828 35.528C22.4813 35.0053 22.2947 34.3867 22.268 33.672H23.748C23.86 34.392 24.1533 34.944 24.628 35.328C25.1027 35.712 25.6973 35.904 26.412 35.904C26.9773 35.904 27.4707 35.816 27.892 35.64C28.3133 35.4587 28.6387 35.2107 28.868 34.896C29.0973 34.5813 29.212 34.2133 29.212 33.792C29.212 33.328 29.084 32.936 28.828 32.616C28.572 32.296 28.2227 32.0533 27.78 31.888C27.3373 31.7173 26.844 31.6293 26.3 31.624L25.26 31.6V30.344L26.252 30.32C26.7587 30.3093 27.212 30.2133 27.612 30.032C28.012 29.8453 28.3267 29.6027 28.556 29.304C28.7907 29 28.908 28.6667 28.908 28.304C28.908 27.984 28.8093 27.688 28.612 27.416C28.4147 27.1387 28.1293 26.9173 27.756 26.752C27.388 26.5867 26.94 26.504 26.412 26.504C25.996 26.504 25.5987 26.5867 25.22 26.752C24.8413 26.912 24.5293 27.16 24.284 27.496C24.0387 27.832 23.908 28.2667 23.892 28.8H22.42ZM36.3884 25.272C37.6417 25.272 38.639 25.776 39.3804 26.784C40.127 27.7867 40.5004 29.272 40.5004 31.24C40.5004 33.1973 40.1297 34.6773 39.3884 35.68C38.647 36.6773 37.6417 37.176 36.3724 37.176C35.1084 37.176 34.1057 36.68 33.3644 35.688C32.623 34.6907 32.2524 33.216 32.2524 31.264C32.2524 29.9467 32.423 28.8427 32.7644 27.952C33.1057 27.0613 33.5857 26.392 34.2044 25.944C34.823 25.496 35.551 25.272 36.3884 25.272ZM36.3884 35.896C37.215 35.896 37.839 35.5333 38.2604 34.808C38.687 34.0773 38.9004 32.8907 38.9004 31.248C38.9004 29.5733 38.6844 28.368 38.2524 27.632C37.8257 26.8907 37.2017 26.52 36.3804 26.52C35.5644 26.52 34.935 26.8933 34.4924 27.64C34.055 28.3813 33.8364 29.584 33.8364 31.248C33.8364 32.8853 34.055 34.0693 34.4924 34.8C34.9297 35.5307 35.5617 35.896 36.3884 35.896Z" fill="#8340A1"/>
</g>
<defs>
<clipPath id="clip0_17_82">
<rect width="40" height="40" fill="white" transform="translate(11.5 11)"/>
</clipPath>
</defs>
</svg>
