<svg width="63" height="62" viewBox="0 0 63 62" fill="none" xmlns="http://www.w3.org/2000/svg">
<rect x="1.5" y="1" width="60" height="60" rx="30" stroke="#8340A1" stroke-width="2"/>
<path d="M27.8775 11.9806C29.5095 13.3237 30.3283 15.2881 31.1172 17.1968C31.148 17.2711 31.1789 17.3453 31.2106 17.4218C31.2528 17.5255 31.2528 17.5255 31.2958 17.6314C31.3332 17.7234 31.3332 17.7234 31.3715 17.8172C31.4248 17.9781 31.4248 17.9781 31.4248 18.2124C31.4764 18.2124 31.528 18.2124 31.5811 18.2124C31.5903 18.1577 31.5995 18.103 31.6089 18.0465C31.7076 17.6055 31.9015 17.1934 32.0743 16.7769C32.095 16.7268 32.1158 16.6767 32.1371 16.6251C32.7101 15.2484 33.3185 13.8698 34.3155 12.7437C34.3933 12.6544 34.3933 12.6544 34.4726 12.5633C35.3781 11.5918 36.6642 11.0489 37.9809 10.9987C39.613 10.975 41.1626 11.2409 42.4014 12.3873C42.5477 12.5295 42.6893 12.6749 42.8311 12.8218C42.8887 12.877 42.9463 12.9322 43.0057 12.9891C44.0169 14.0159 44.4186 15.481 44.4327 16.8843C44.4209 18.1578 44.0871 19.2581 43.378 20.3218C43.4436 20.3221 43.5092 20.3224 43.5768 20.3227C44.1986 20.3257 44.8203 20.3301 45.442 20.3362C45.7615 20.3393 46.0811 20.3418 46.4006 20.343C46.7097 20.3442 47.0186 20.3469 47.3276 20.3506C47.4449 20.3517 47.5621 20.3524 47.6794 20.3524C48.8033 20.3537 49.6315 20.5855 50.4873 21.3374C50.8563 21.7296 51.1432 22.1668 51.3467 22.6656C51.3733 22.7286 51.3999 22.7917 51.4272 22.8567C51.5305 23.2352 51.5283 23.5939 51.5292 23.9845C51.5297 24.0666 51.5302 24.1487 51.5308 24.2333C51.5316 24.4068 51.5319 24.5803 51.5319 24.7537C51.5323 25.0166 51.5351 25.2793 51.5381 25.5422C51.5454 26.9161 51.4042 27.8616 50.4309 28.9034C50.1814 29.1346 49.9153 29.2869 49.6103 29.4362C49.5403 29.4706 49.4704 29.505 49.3983 29.5405C49.3452 29.5663 49.2921 29.5921 49.2373 29.6187C49.2372 29.7619 49.2372 29.7619 49.237 29.9079C49.2342 32.1756 49.2298 34.4432 49.2234 36.7109C49.2227 36.9902 49.2219 37.2696 49.2211 37.549C49.2209 37.6324 49.2209 37.6324 49.2207 37.7175C49.2182 38.6169 49.2169 39.5164 49.216 40.4158C49.215 41.3393 49.2129 42.2628 49.2096 43.1864C49.2079 43.7048 49.2066 44.2233 49.2067 44.7418C49.2068 45.2301 49.2054 45.7184 49.2029 46.2067C49.2022 46.3856 49.2021 46.5645 49.2025 46.7434C49.2053 48.0446 49.1144 48.9935 48.2217 50.0093C47.58 50.6129 46.797 51.044 45.9035 51.045C45.8528 51.0453 45.8021 51.0456 45.7499 51.0459C45.5804 51.0466 45.4108 51.0462 45.2413 51.0458C45.1184 51.0461 44.9955 51.0465 44.8726 51.0469C44.535 51.0479 44.1975 51.0478 43.86 51.0477C43.4958 51.0476 43.1317 51.0485 42.7676 51.0492C42.0542 51.0505 41.3409 51.051 40.6275 51.0511C40.0476 51.0511 39.4677 51.0514 38.8878 51.0519C37.2434 51.0533 35.5991 51.054 33.9547 51.0539C33.8217 51.0539 33.8217 51.0539 33.6861 51.0539C33.5973 51.0539 33.5085 51.0539 33.4171 51.0539C31.9789 51.0538 30.5407 51.0553 29.1025 51.0575C27.6256 51.0598 26.1487 51.0608 24.6718 51.0607C23.8427 51.0607 23.0137 51.0611 22.1846 51.0628C21.4786 51.0642 20.7726 51.0645 20.0666 51.0635C19.7065 51.063 19.3465 51.0629 18.9864 51.0643C18.6564 51.0655 18.3265 51.0653 17.9965 51.0639C17.8775 51.0637 17.7584 51.064 17.6394 51.0649C16.5273 51.0725 15.7082 50.8307 14.8623 50.0874C14.4934 49.6953 14.2065 49.2581 14.003 48.7593C13.9763 48.6945 13.9496 48.6297 13.9222 48.5629C13.8248 48.2114 13.8242 47.8884 13.825 47.5253C13.8245 47.4487 13.8241 47.3721 13.8236 47.2931C13.8223 47.0365 13.822 46.7799 13.8218 46.5233C13.8211 46.3393 13.8203 46.1553 13.8194 45.9713C13.8173 45.4717 13.8161 44.9722 13.8151 44.4727C13.814 44.0035 13.8122 43.5343 13.8104 43.0651C13.8068 42.136 13.804 41.2069 13.8015 40.2777C13.7992 39.3753 13.7965 38.4729 13.7934 37.5704C13.7932 37.5148 13.793 37.4591 13.7928 37.4018C13.7918 37.1226 13.7909 36.8434 13.7899 36.5642C13.7818 34.2491 13.7748 31.9339 13.7686 29.6187C13.7146 29.5922 13.6607 29.5657 13.6051 29.5383C13.5345 29.5034 13.4639 29.4684 13.3911 29.4324C13.3211 29.3979 13.251 29.3633 13.1788 29.3276C12.4189 28.9325 11.8768 28.1981 11.6149 27.3931C11.4856 26.9515 11.4677 26.5368 11.4691 26.079C11.4687 25.9971 11.4683 25.9153 11.4678 25.831C11.4674 25.6591 11.4674 25.4871 11.4681 25.3152C11.4688 25.0542 11.4665 24.7934 11.4641 24.5325C11.4639 24.3644 11.464 24.1963 11.4642 24.0282C11.4633 23.9513 11.4625 23.8745 11.4615 23.7953C11.4708 22.8582 11.8269 22.1138 12.4405 21.4156C13.0948 20.8 13.8773 20.385 14.7854 20.375C14.838 20.3743 14.8907 20.3735 14.9449 20.3727C15.1174 20.3703 15.2898 20.3689 15.4623 20.3676C15.5825 20.3661 15.7027 20.3646 15.8229 20.363C16.1381 20.359 16.4532 20.3559 16.7684 20.353C17.0905 20.3499 17.4126 20.3459 17.7347 20.342C18.3658 20.3344 18.9969 20.3278 19.628 20.3218C19.5956 20.2686 19.5632 20.2154 19.5298 20.1605C19.4875 20.0905 19.4451 20.0205 19.4014 19.9483C19.3594 19.879 19.3174 19.8096 19.274 19.7382C19.1404 19.5081 19.0373 19.2771 18.9444 19.0279C18.9142 18.9488 18.8839 18.8698 18.8528 18.7883C18.337 17.1754 18.5261 15.4761 19.2831 13.9769C19.578 13.434 19.9674 13.014 20.4092 12.5874C20.4644 12.5298 20.5196 12.4722 20.5765 12.4129C22.3898 10.6272 25.873 10.431 27.8775 11.9806ZM22.0498 14.3843C22.0001 14.4309 21.9503 14.4774 21.8991 14.5253C21.236 15.2112 21.0079 16.0986 21.0041 17.0261C21.0207 17.9255 21.3596 18.6531 21.9717 19.3062C22.0415 19.3808 22.0415 19.3808 22.1127 19.457C23.0854 20.3974 24.4339 20.4248 25.7083 20.4152C25.8243 20.4149 25.9403 20.4147 26.0563 20.4145C26.3584 20.4139 26.6605 20.4124 26.9625 20.4107C27.2721 20.4091 27.5817 20.4084 27.8912 20.4076C28.4962 20.4059 29.1011 20.4033 29.7061 20.3999C29.4134 19.5491 29.1034 18.7097 28.7539 17.8804C28.7322 17.8288 28.7105 17.7771 28.6882 17.7239C27.7501 15.2891 27.7501 15.2891 25.8821 13.6157C25.4417 13.4533 25.0368 13.4042 24.5694 13.4078C24.5013 13.4082 24.4332 13.4087 24.363 13.4091C23.4473 13.4342 22.7166 13.7594 22.0498 14.3843ZM36.8936 13.7593C36.8398 13.7916 36.786 13.8238 36.7306 13.857C36.045 14.3193 35.5859 15.0426 35.2139 15.7662C35.1758 15.8396 35.1377 15.913 35.0984 15.9886C34.7017 16.777 34.3665 17.5914 34.0323 18.4078C34.0046 18.4752 33.977 18.5426 33.9485 18.6121C33.8692 18.8066 33.7903 19.0014 33.7118 19.1963C33.6883 19.2545 33.6647 19.3126 33.6404 19.3725C33.5054 19.711 33.394 20.0478 33.2998 20.3999C33.9661 20.4036 34.6324 20.4064 35.2987 20.408C35.6082 20.4089 35.9177 20.41 36.2271 20.4117C36.5265 20.4134 36.8259 20.4144 37.1253 20.4148C37.2387 20.4151 37.3522 20.4156 37.4657 20.4165C38.8522 20.4265 40.0477 20.2838 41.08 19.2812C41.3561 18.9747 41.5597 18.6621 41.7373 18.2906C41.7769 18.2134 41.7769 18.2134 41.8173 18.1346C42.1351 17.3867 42.0777 16.3796 41.8106 15.6294C41.612 15.1859 41.3661 14.8166 41.0342 14.4624C40.9644 14.3878 40.9644 14.3878 40.8932 14.3117C40.0973 13.5422 39.1172 13.4098 38.0639 13.4252C37.6218 13.4417 37.2721 13.5255 36.8936 13.7593ZM14.252 23.0904C13.77 23.6549 13.8322 24.2023 13.8322 24.9164C13.8321 25.0767 13.8306 25.2369 13.8292 25.3972C13.829 25.4994 13.8289 25.6016 13.8287 25.707C13.8284 25.7998 13.8281 25.8926 13.8277 25.9883C13.8566 26.4012 13.9199 26.7103 14.1934 27.0259C14.6288 27.3976 14.9536 27.4411 15.5134 27.4406C15.6132 27.4407 15.713 27.4408 15.8158 27.4409C15.9258 27.4406 16.0358 27.4404 16.1459 27.4401C16.2621 27.44 16.3784 27.4401 16.4947 27.4401C16.8099 27.4401 17.1251 27.4397 17.4403 27.4391C17.7699 27.4386 18.0995 27.4386 18.4291 27.4385C19.053 27.4383 19.6769 27.4376 20.3008 27.4368C21.0112 27.436 21.7216 27.4355 22.432 27.4351C23.8932 27.4343 25.3543 27.4329 26.8155 27.4312C26.8155 25.8843 26.8155 24.3374 26.8155 22.7437C25.2868 22.7402 23.7581 22.7373 22.2294 22.7356C21.5196 22.7348 20.8098 22.7337 20.1 22.7319C19.4813 22.7304 18.8625 22.7293 18.2438 22.729C17.9162 22.7288 17.5887 22.7283 17.2611 22.7272C16.9526 22.7261 16.6442 22.7258 16.3356 22.726C16.2226 22.726 16.1096 22.7257 15.9966 22.7251C15.8418 22.7243 15.687 22.7246 15.5322 22.7249C15.4025 22.7247 15.4025 22.7247 15.2701 22.7245C14.8656 22.7554 14.561 22.8226 14.252 23.0904ZM29.1592 22.7437C29.1592 31.3031 29.1592 39.8624 29.1592 48.6812C30.7061 48.6812 32.253 48.6812 33.8467 48.6812C33.8467 40.1218 33.8467 31.5624 33.8467 22.7437C32.2998 22.7437 30.753 22.7437 29.1592 22.7437ZM36.1905 22.7437C36.1905 24.2906 36.1905 25.8374 36.1905 27.4312C37.7191 27.4347 39.2478 27.4376 40.7765 27.4393C41.4863 27.4401 42.1961 27.4412 42.9059 27.443C43.5247 27.4445 44.1434 27.4456 44.7621 27.4459C45.0897 27.4461 45.4172 27.4466 45.7448 27.4477C46.0533 27.4488 46.3618 27.4491 46.6703 27.4489C46.7833 27.4489 46.8963 27.4492 47.0094 27.4498C47.1641 27.4506 47.3189 27.4503 47.4737 27.45C47.6035 27.4502 47.6035 27.4502 47.7358 27.4504C48.1403 27.4195 48.445 27.3523 48.7539 27.0845C49.2359 26.52 49.1738 25.9726 49.1737 25.2585C49.1739 25.0982 49.1753 24.938 49.1768 24.7777C49.1769 24.6755 49.1771 24.5733 49.1772 24.4679C49.1775 24.3751 49.1779 24.2823 49.1782 24.1866C49.1493 23.7737 49.0861 23.4646 48.8125 23.149C48.3771 22.7773 48.0523 22.7338 47.4925 22.7343C47.3927 22.7342 47.2929 22.7341 47.1901 22.734C47.0801 22.7343 46.9701 22.7345 46.8601 22.7348C46.7438 22.7349 46.6275 22.7348 46.5112 22.7348C46.196 22.7348 45.8808 22.7352 45.5656 22.7358C45.236 22.7363 44.9064 22.7363 44.5768 22.7364C43.9529 22.7366 43.329 22.7373 42.7051 22.7381C41.9947 22.7389 41.2843 22.7394 40.5739 22.7398C39.1128 22.7406 37.6516 22.742 36.1905 22.7437ZM16.1905 29.7749C16.1859 32.9136 16.1859 32.9136 16.1828 36.0523C16.1825 36.4755 16.1822 36.8987 16.1819 37.3219C16.1818 37.3749 16.1818 37.4279 16.1818 37.4826C16.1811 38.3386 16.1798 39.1947 16.1784 40.0507C16.1769 40.9294 16.1761 41.8081 16.1758 42.6867C16.1756 43.1802 16.1751 43.6737 16.1739 44.1672C16.1729 44.6316 16.1726 45.0961 16.1728 45.5605C16.1727 45.731 16.1724 45.9015 16.1718 46.0719C16.1711 46.3047 16.1712 46.5375 16.1717 46.7703C16.1712 46.8377 16.1708 46.9051 16.1703 46.9746C16.1728 47.4707 16.2 47.8869 16.5371 48.2759C19.1449 50.5021 23.3867 48.6812 26.8155 48.6812C26.8155 42.4421 26.8155 36.2031 26.8155 29.7749C23.3092 29.7749 19.803 29.7749 16.1905 29.7749ZM36.1905 29.7749C36.1905 36.014 36.1905 42.2531 36.1905 48.6812C41.7167 49.624 41.7167 49.624 46.4102 48.3345C46.8352 47.8367 46.827 47.414 46.8249 46.7891C46.8249 46.7163 46.825 46.6436 46.8251 46.5686C46.8252 46.3248 46.8248 46.0809 46.8243 45.837C46.8243 45.6622 46.8243 45.4875 46.8244 45.3127C46.8244 44.838 46.8239 44.3633 46.8234 43.8886C46.8229 43.3926 46.8229 42.8966 46.8228 42.4006C46.8225 41.5681 46.8221 40.7355 46.8214 39.9029C46.8206 39.0454 46.8201 38.1879 46.8198 37.3304C46.8197 37.277 46.8197 37.2236 46.8197 37.1686C46.8195 36.704 46.8193 36.2394 46.8192 35.7748C46.8184 33.7749 46.8169 31.7749 46.8155 29.7749C43.3092 29.7749 39.803 29.7749 36.1905 29.7749Z" fill="#8340A1"/>
</svg>
